<svg width="399" height="234" viewBox="0 0 399 234" fill="none" xmlns="http://www.w3.org/2000/svg">
<g clip-path="url(#clip0_281_307)">
<path d="M394.18 32.03C389.19 22.3 379.67 15.47 369.39 11.74C340.68 1.33001 306.93 14.53 287.76 38.3C266.55 64.6 255.43 98.83 265.28 132.1C270.57 149.98 287.13 161.17 305.66 161.21C312.2 161.22 318.72 159.75 324.65 157.01C327.75 155.58 330.4 153.66 333.24 151.82C339.96 147.48 334.28 163.59 333.46 165.66C330.63 172.85 326.32 179.64 319.86 184.08C309.99 190.85 297.19 191.05 285.72 189.8C279.1 189.08 272.49 187.93 266.18 185.77C259.42 183.46 252.99 179.94 247.89 174.94C244.04 171.16 241.19 166.66 238.18 162.22C237.95 161.89 237.84 161.45 237.43 161.69C237.02 161.93 236.77 162.52 236.55 162.91C234.25 167.02 231.26 170.74 227.75 173.87C224.76 176.54 220.99 178.51 217.15 179.66C213.37 180.79 209.33 181.14 205.44 180.44C201.52 179.74 197.87 177.95 194.91 175.28C184.98 166.31 186.04 150.71 187.89 137.46C188.23 135.06 188.67 132.44 190.5 130.85C192.2 129.36 194.62 129.17 196.86 128.9C216.36 126.6 233.67 113.52 243.6 96.58C253.52 79.64 256.58 59.28 254.85 39.72C254.06 30.78 252.23 21.7 247.51 14.07C242.79 6.44001 234.74 0.430008 225.77 0.0200083C211.35 -0.639992 197.99 12.48 190.23 24.65C177.58 44.5 173.28 66.91 169.33 90.12C168.59 94.48 168.02 97.13 166.01 100.77C164.52 103.47 161.96 103.67 158.93 104.21C150.49 105.72 141.93 106.57 133.36 106.75C127.09 106.88 128.07 103.02 128.76 98.06C129.49 92.85 130.77 87.74 132.11 82.66C138.15 59.67 143.94 24.58 117.13 11.54C108.76 7.47001 98.9801 7.51001 89.7701 8.80001C71.7501 11.32 54.5001 18.58 39.8001 29.27C27.8001 38.01 12.2601 51.82 7.74006 66.44C2.12006 84.62 13.0801 108.34 30.5601 115.76C42.3801 120.78 57.2101 119.6 67.0101 110.85C67.6201 110.31 68.0701 109.6 68.2501 108.8C68.3201 108.47 68.3501 108.17 68.3301 107.87C68.1401 104.17 61.1501 102.81 58.6801 100.8C54.2701 97.22 53.0601 90.77 54.3001 85.23C55.5401 79.69 58.8201 74.84 62.1401 70.24C70.2301 59.02 79.5401 47.9 92.2801 42.53C99.7601 39.38 106.58 39.84 105.87 49.35C103.53 80.97 94.2801 112.06 78.9401 139.81C72.4601 151.54 62.1301 164.09 48.8001 162.71C41.1201 161.91 34.6301 156.38 30.4401 149.89C26.0601 143.1 23.7301 135.24 20.7301 127.75C20.4801 127.12 20.1301 126.53 19.6401 126.07C17.7401 124.26 15.7101 125.51 14.2301 126.82C9.65006 130.84 6.43006 136.21 4.13006 141.85C-5.38994 165.16 1.86006 194.62 21.9801 209.77C42.0901 224.92 73.4601 223.23 90.9001 205.07C106.96 188.35 109.32 163.27 115.75 140.99C116.4 138.75 117.2 136.37 119.09 135.02C120.74 133.84 122.88 133.69 124.9 133.57L151.2 132.08C152.13 132.03 153.03 132.35 153.96 132.47C155.51 132.67 157.04 133.53 157.29 135.22C157.44 136.22 157.17 137.23 156.91 138.21C152.4 154.98 148.81 171.29 150.88 188.79C152.8 205 162.26 221.52 177.81 226.49C192.17 231.08 207.27 224.89 217.67 214.88C223.65 209.12 228.58 202.27 232.09 194.74C232.24 194.41 232.53 194.01 232.88 194.13C233.11 194.2 233.21 194.46 233.28 194.69C237.4 207.37 246.41 218.33 257.9 225.05C260.59 226.62 263.42 227.99 266.34 229.06C291.62 238.38 323.67 233.82 344.39 216.23C357.36 205.22 365.43 189.65 370.49 173.83C375.99 156.61 378.12 136.35 378.11 118.16C378.11 111.95 375.42 88.53 365.85 101.12C363.03 104.82 359.07 107.81 356.18 109.88C344.95 117.9 329.31 120.48 319.24 111.04C309.17 101.6 307.39 85.2 313.48 72.82C319.85 59.86 335.12 51.14 349.17 54.5C362.69 57.74 372.32 73.47 367.82 86.42C367.54 87.21 368.06 88.08 368.9 88.14C378.62 88.86 387.36 80.7 392.08 71.9C398.62 59.7 400.48 44.35 394.16 32.04L394.18 32.03ZM189.87 86.91C190.49 80.02 191.75 73.19 193.65 66.54C194.97 61.89 196.65 57.25 199.52 53.37C204.38 46.79 217.66 40.8 223.98 48.98C226.03 51.64 226.78 55.11 226.83 58.47C226.94 65.26 224.48 71.84 221.39 77.89C216.19 88.09 208.37 97.85 197.41 101.14C195.53 101.71 193.36 102.03 191.72 100.95C189.63 99.58 189.39 96.66 189.45 94.16C189.51 91.74 189.64 89.32 189.86 86.91H189.87Z" fill="#515FAB"/>
<path d="M59.0701 104.74C59.0701 104.74 63.9301 105.61 64.1701 107.31C64.4201 109.03 61.3801 111.29 60.2101 111.94C58.1101 113.12 44.1901 116.97 43.0601 116.16C43.0601 116.16 58.9201 111.66 59.0601 104.74H59.0701Z" fill="#AFC3E5"/>
<path d="M16.7102 130.69C16.5702 130.74 16.4402 130.81 16.3102 130.88C15.3302 131.41 14.4202 132.07 13.6202 132.85C12.1702 134.27 11.1102 136.04 10.0802 137.79C9.20023 139.29 8.33023 140.8 7.49023 142.32C7.06023 143.1 6.64023 143.88 6.23023 144.67C5.94023 145.24 5.72023 145.66 5.49023 146.4C5.81023 146.08 6.27023 145.58 6.48023 145.32C7.17023 144.48 7.86023 143.64 8.57023 142.82C9.98023 141.17 11.4302 139.56 12.9902 138.04C13.5102 137.53 14.0502 137.03 14.7102 136.72C15.5702 136.32 16.5502 136.29 17.4802 136.45C17.9102 136.53 18.3302 136.64 18.7402 136.78C18.9602 136.85 19.8802 137.35 20.0602 137.28C20.2802 137.19 20.1702 136.88 20.1402 136.63C20.0302 135.82 19.8402 135.02 19.6102 134.24C19.3402 133.3 19.0402 132.28 18.5102 131.44C18.2002 130.96 17.6802 130.55 17.1002 130.59C16.9702 130.6 16.8402 130.63 16.7202 130.68L16.7102 130.69Z" fill="#AFC3E5"/>
<path d="M371.71 106.99C371.77 107.07 371.83 107.14 371.89 107.22C372.72 108.4 373.11 110 373.43 111.39C373.98 113.76 373.9 116.04 373.8 118.28C373.71 120.2 373.61 122.11 373.47 124.01C373.4 124.98 373.31 125.95 373.21 126.91C373.14 127.6 373.07 128.11 372.82 128.87C372.7 128.34 372.56 127.55 372.52 127.17C372.37 125.92 372.21 124.67 372.04 123.42C371.69 120.92 371.26 118.4 370.67 115.87C370.42 114.78 370.05 113.82 369.5 112.84C369 111.95 368.43 111.06 367.57 110.49C366.76 109.95 365.76 109.75 364.78 109.71C364.48 109.7 364.06 109.76 363.78 109.65C363.44 109.51 363.65 109.24 363.81 109C364.07 108.59 364.45 108.27 364.82 107.97C366.18 106.9 367.65 106.2 369.37 105.97C370.3 105.85 371.13 106.3 371.71 106.99Z" fill="#AFC3E5"/>
<path d="M92.6598 195.86C92.1398 196.65 91.5998 197.4 91.0698 198.12C89.0398 200.89 86.8698 203.46 84.2398 205.69C78.2498 210.76 70.7798 214.05 62.9998 215.05C59.1098 215.55 55.1498 215.49 51.2598 215.09C51.8698 214.99 52.4098 214.69 52.9998 214.53C54.0598 214.24 55.1298 213.97 56.1898 213.66C58.4198 213.01 60.6198 212.26 62.7898 211.42C67.1298 209.74 71.3198 207.7 75.3198 205.32C78.9498 203.17 82.4098 200.73 85.6698 198.06C87.3598 196.67 88.9998 195.21 90.5798 193.7C92.0898 192.24 93.4498 190.42 95.0698 189.12C95.1298 191.54 94.0098 193.82 92.6698 195.87L92.6598 195.86Z" fill="#AFC3E5"/>
<path d="M300.41 153.87C299.56 153.75 298.74 153.61 297.95 153.46C294.92 152.91 292.06 152.22 289.45 151.15C283.52 148.71 279.04 144.86 276.73 140.21C275.57 137.88 274.94 135.37 274.66 132.8C274.86 133.16 275.24 133.42 275.5 133.75C275.96 134.35 276.41 134.95 276.89 135.54C277.91 136.78 279.01 137.97 280.19 139.12C282.56 141.42 285.26 143.52 288.25 145.42C290.96 147.14 293.91 148.69 297.06 150.04C298.7 150.74 300.39 151.39 302.13 151.99C303.87 152.59 305.8 152.94 307.34 153.61C305.02 154.29 302.62 154.18 300.4 153.88L300.41 153.87Z" fill="#AFC3E5"/>
<path d="M250.53 186.76C249.23 186.37 247.99 185.8 246.78 185.2C244.79 184.2 242.83 183.09 241.28 181.57C239.65 179.97 238.52 177.93 238.04 175.76C237.79 174.64 237.5 173.53 237.36 172.39C237.2 171.08 237.05 169.64 237.14 168.31C237.22 168.59 237.42 168.83 237.54 169.09C237.75 169.57 237.96 170.06 238.18 170.53C238.65 171.54 239.19 172.53 239.78 173.5C240.96 175.44 242.55 177.36 244.15 179.11C246 181.14 248.08 182.98 250.31 184.65C251.15 185.28 252.06 185.84 253.02 186.3C253.45 186.51 254.53 187.02 255.19 187.34C253.9 187.7 251.96 187.18 250.72 186.83C250.66 186.81 250.6 186.79 250.53 186.78V186.76Z" fill="#AFC3E5"/>
<path d="M190.1 222.4C189.48 222.46 188.87 222.49 188.29 222.52C186.04 222.62 183.85 222.59 181.7 222.19C176.81 221.28 172.43 218.95 169.24 215.58C167.64 213.89 166.34 211.95 165.26 209.9C165.52 210.15 165.87 210.3 166.16 210.52C166.68 210.92 167.2 211.33 167.73 211.73C168.85 212.56 170.02 213.33 171.22 214.05C173.63 215.49 176.2 216.72 178.9 217.72C181.34 218.63 183.89 219.35 186.5 219.88C187.86 220.15 189.23 220.37 190.63 220.54C191.97 220.7 193.46 220.64 194.74 220.91C193.39 221.89 191.72 222.25 190.11 222.4H190.1Z" fill="#AFC3E5"/>
<path d="M228.55 6.4901C228.55 6.4901 228.62 6.4901 228.66 6.4901C230.22 6.5401 231.76 6.8801 233.21 7.4501C235.78 8.4701 238.03 10.2101 239.88 12.2701C243.5 16.3201 245.61 21.6901 245.69 27.1201C245.69 26.7601 245.07 25.9801 244.9 25.6601C244.6 25.0901 244.31 24.5201 244.01 23.9601C243.4 22.8001 242.78 21.6401 242.08 20.5301C240.72 18.3501 239.2 16.2801 237.43 14.4101C235.69 12.5801 233.71 10.9701 231.52 9.7101C230.42 9.0801 229.27 8.5401 228.07 8.1201C226.87 7.7001 225.64 7.5601 224.44 7.2201C224.42 7.2201 225.07 6.9101 225.19 6.8901C225.56 6.8101 225.92 6.7101 226.3 6.6501C227.04 6.5201 227.8 6.4701 228.55 6.4901Z" fill="#AFC3E5"/>
<path d="M362.88 17.3601C363.26 17.3301 363.65 17.3101 364.04 17.3001C368.79 17.2401 373.58 18.3601 377.63 20.8801C383.27 24.3901 387.33 30.1901 389.23 36.5601C388.59 35.7201 387.23 34.4001 386.5 33.6701C385.34 32.4901 384.14 31.3401 382.91 30.2401C380.45 28.0301 377.84 25.9901 375.03 24.2601C372.56 22.7401 369.93 21.4701 367.18 20.5501C364.25 19.5701 361.19 19.3801 358.23 18.6101C359.74 17.9401 361.27 17.5201 362.88 17.3701V17.3601Z" fill="#AFC3E5"/>
</g>
<defs>
<clipPath id="clip0_281_307">
<rect width="398.08" height="233.78" fill="white"/>
</clipPath>
</defs>
</svg>
