<?xml version="1.0" encoding="UTF-8"?>
<svg id="Layer_1" data-name="Layer 1" xmlns="http://www.w3.org/2000/svg" version="1.1" viewBox="0 0 595.28 841.89">
  <defs>
    <style>
      .cls-1 {
        fill: #515fab;
      }

      .cls-1, .cls-2 {
        stroke-width: 0px;
      }

      .cls-2 {
        fill: #afc3e5;
      }
    </style>
  </defs>
  <path class="cls-1" d="M479.59,340.85c-4.99-9.73-14.51-16.56-24.79-20.29-28.71-10.41-62.46,2.79-81.63,26.56-21.21,26.3-32.33,60.53-22.48,93.8,5.29,17.88,21.85,29.07,40.38,29.11,6.54.01,13.06-1.46,18.99-4.2,3.1-1.43,5.75-3.35,8.59-5.19,6.72-4.34,1.04,11.77.22,13.84-2.83,7.19-7.14,13.98-13.6,18.42-9.87,6.77-22.67,6.97-34.14,5.72-6.62-.72-13.23-1.87-19.54-4.03-6.76-2.31-13.19-5.83-18.29-10.83-3.85-3.78-6.7-8.28-9.71-12.72-.23-.33-.34-.77-.75-.53s-.66.83-.88,1.22c-2.3,4.11-5.29,7.83-8.8,10.96-2.99,2.67-6.76,4.64-10.6,5.79-3.78,1.13-7.82,1.48-11.71.78-3.92-.7-7.57-2.49-10.53-5.16-9.93-8.97-8.87-24.57-7.02-37.82.34-2.4.78-5.02,2.61-6.61,1.7-1.49,4.12-1.68,6.36-1.95,19.5-2.3,36.81-15.38,46.74-32.32,9.92-16.94,12.98-37.3,11.25-56.86-.79-8.94-2.62-18.02-7.34-25.65s-12.76-13.64-21.73-14.06c-14.42-.66-27.78,12.46-35.54,24.63-12.65,19.85-16.95,42.26-20.9,65.47-.74,4.36-1.31,7.01-3.32,10.65-1.49,2.7-4.05,2.9-7.08,3.44-8.44,1.51-17,2.36-25.57,2.54-6.27.13-5.29-3.73-4.6-8.69.73-5.21,2.01-10.32,3.35-15.4,6.04-22.99,11.83-58.08-14.98-71.12-8.37-4.07-18.15-4.03-27.36-2.74-18.02,2.52-35.27,9.78-49.97,20.47-12,8.74-27.54,22.55-32.06,37.17-5.62,18.18,5.34,41.9,22.82,49.32,11.82,5.02,26.65,3.84,36.45-4.91.61-.54,1.06-1.25,1.24-2.05.07-.33.1-.63.08-.93-.19-3.7-7.18-5.06-9.65-7.07-4.41-3.58-5.62-10.03-4.38-15.57,1.24-5.54,4.52-10.39,7.84-14.99,8.09-11.22,17.4-22.34,30.14-27.71,7.48-3.15,14.3-2.69,13.59,6.82-2.34,31.62-11.59,62.71-26.93,90.46-6.48,11.73-16.81,24.28-30.14,22.9-7.68-.8-14.17-6.33-18.36-12.82-4.38-6.79-6.71-14.65-9.71-22.14-.25-.63-.6-1.22-1.09-1.68-1.9-1.81-3.93-.56-5.41.75-4.58,4.02-7.8,9.39-10.1,15.03-9.52,23.31-2.27,52.77,17.85,67.92,20.11,15.15,51.48,13.46,68.92-4.7,16.06-16.72,18.42-41.8,24.85-64.08.65-2.24,1.45-4.62,3.34-5.97,1.65-1.18,3.79-1.33,5.81-1.45l26.3-1.49c.93-.05,1.83.27,2.76.39,1.55.2,3.08,1.06,3.33,2.75.15,1-.12,2.01-.38,2.99-4.51,16.77-8.1,33.08-6.03,50.58,1.92,16.21,11.38,32.73,26.93,37.7,14.36,4.59,29.46-1.6,39.86-11.61,5.98-5.76,10.91-12.61,14.42-20.14.15-.33.44-.73.79-.61.23.07.33.33.4.56,4.12,12.68,13.13,23.64,24.62,30.36,2.69,1.57,5.52,2.94,8.44,4.01,25.28,9.32,57.33,4.76,78.05-12.83,12.97-11.01,21.04-26.58,26.1-42.4,5.5-17.22,7.63-37.48,7.62-55.67,0-6.21-2.69-29.63-12.26-17.04-2.82,3.7-6.78,6.69-9.67,8.76-11.23,8.02-26.87,10.6-36.94,1.16-10.07-9.44-11.85-25.84-5.76-38.22,6.37-12.96,21.64-21.68,35.69-18.32,13.52,3.24,23.15,18.97,18.65,31.92-.28.79.24,1.66,1.08,1.72,9.72.72,18.46-7.44,23.18-16.24,6.54-12.2,8.4-27.55,2.08-39.86ZM275.27,395.73c.62-6.89,1.88-13.72,3.78-20.37,1.32-4.65,3-9.29,5.87-13.17,4.86-6.58,18.14-12.57,24.46-4.39,2.05,2.66,2.8,6.13,2.85,9.49.11,6.79-2.35,13.37-5.44,19.42-5.2,10.2-13.02,19.96-23.98,23.25-1.88.57-4.05.89-5.69-.19-2.09-1.37-2.33-4.29-2.27-6.79.06-2.42.19-4.84.41-7.25Z"/>
  <path class="cls-2" d="M144.47,413.56s4.86.87,5.1,2.57c.25,1.72-2.79,3.98-3.96,4.63-2.1,1.18-16.02,5.03-17.15,4.22,0,0,15.86-4.5,16-11.42Z"/>
  <path class="cls-2" d="M102.12,439.51c-.14.05-.27.12-.4.19-.98.53-1.89,1.19-2.69,1.97-1.45,1.42-2.51,3.19-3.54,4.94-.88,1.5-1.75,3.01-2.59,4.53-.43.78-.85,1.56-1.26,2.35-.29.57-.51.99-.74,1.73.32-.32.78-.82.99-1.08.69-.84,1.38-1.68,2.09-2.5,1.41-1.65,2.86-3.26,4.42-4.78.52-.51,1.06-1.01,1.72-1.32.86-.4,1.84-.43,2.77-.27.43.08.85.19,1.26.33.22.07,1.14.57,1.32.5.22-.09.11-.4.08-.65-.11-.81-.3-1.61-.53-2.39-.27-.94-.57-1.96-1.1-2.8-.31-.48-.83-.89-1.41-.85-.13.01-.26.04-.38.09Z"/>
  <path class="cls-2" d="M457.12,415.8c.06.08.12.15.18.23.83,1.18,1.22,2.78,1.54,4.17.55,2.37.47,4.65.37,6.89-.09,1.92-.19,3.83-.33,5.73-.07.97-.16,1.94-.26,2.9-.07.69-.14,1.2-.39,1.96-.12-.53-.26-1.32-.3-1.7-.15-1.25-.31-2.5-.48-3.75-.35-2.5-.78-5.02-1.37-7.55-.25-1.09-.62-2.05-1.17-3.03-.5-.89-1.07-1.78-1.93-2.35-.81-.54-1.81-.74-2.79-.78-.3-.01-.72.05-1-.06-.34-.14-.13-.41.03-.65.26-.41.64-.73,1.01-1.03,1.36-1.07,2.83-1.77,4.55-2,.93-.12,1.76.33,2.34,1.02Z"/>
  <path class="cls-2" d="M178.06,504.68c-.52.79-1.06,1.54-1.59,2.26-2.03,2.77-4.2,5.34-6.83,7.57-5.99,5.07-13.46,8.36-21.24,9.36-3.89.5-7.85.44-11.74.04.61-.1,1.15-.4,1.74-.56,1.06-.29,2.13-.56,3.19-.87,2.23-.65,4.43-1.4,6.6-2.24,4.34-1.68,8.53-3.72,12.53-6.1,3.63-2.15,7.09-4.59,10.35-7.26,1.69-1.39,3.33-2.85,4.91-4.36,1.51-1.46,2.87-3.28,4.49-4.58.06,2.42-1.06,4.7-2.4,6.75Z"/>
  <path class="cls-2" d="M385.82,462.69c-.85-.12-1.67-.26-2.46-.41-3.03-.55-5.89-1.24-8.5-2.31-5.93-2.44-10.41-6.29-12.72-10.94-1.16-2.33-1.79-4.84-2.07-7.41.2.36.58.62.84.95.46.6.91,1.2,1.39,1.79,1.02,1.24,2.12,2.43,3.3,3.58,2.37,2.3,5.07,4.4,8.06,6.3,2.71,1.72,5.66,3.27,8.81,4.62,1.64.7,3.33,1.35,5.07,1.95s3.67.95,5.21,1.62c-2.32.68-4.72.57-6.94.27Z"/>
  <path class="cls-2" d="M335.94,495.58c-1.3-.39-2.54-.96-3.75-1.56-1.99-1-3.95-2.11-5.5-3.63-1.63-1.6-2.76-3.64-3.24-5.81-.25-1.12-.54-2.23-.68-3.37-.16-1.31-.31-2.75-.22-4.08.08.28.28.52.4.78.21.48.42.97.64,1.44.47,1.01,1.01,2,1.6,2.97,1.18,1.94,2.77,3.86,4.37,5.61,1.85,2.03,3.93,3.87,6.16,5.54.84.63,1.75,1.19,2.71,1.65.43.21,1.51.72,2.17,1.04-1.29.36-3.23-.16-4.47-.51-.06-.02-.12-.04-.19-.05Z"/>
  <path class="cls-2" d="M275.5,531.22c-.62.06-1.23.09-1.81.12-2.25.1-4.44.07-6.59-.33-4.89-.91-9.27-3.24-12.46-6.61-1.6-1.69-2.9-3.63-3.98-5.68.26.25.61.4.9.62.52.4,1.04.81,1.57,1.21,1.12.83,2.29,1.6,3.49,2.32,2.41,1.44,4.98,2.67,7.68,3.67,2.44.91,4.99,1.63,7.6,2.16,1.36.27,2.73.49,4.13.66,1.34.16,2.83.1,4.11.37-1.35.98-3.02,1.34-4.63,1.49Z"/>
  <path class="cls-2" d="M313.95,315.31s.07,0,.11,0c1.56.05,3.1.39,4.55.96,2.57,1.02,4.82,2.76,6.67,4.82,3.62,4.05,5.73,9.42,5.81,14.85,0-.36-.62-1.14-.79-1.46-.3-.57-.59-1.14-.89-1.7-.61-1.16-1.23-2.32-1.93-3.43-1.36-2.18-2.88-4.25-4.65-6.12-1.74-1.83-3.72-3.44-5.91-4.7-1.1-.63-2.25-1.17-3.45-1.59s-2.43-.56-3.63-.9c-.02,0,.63-.31.75-.33.37-.08.73-.18,1.11-.24.74-.13,1.5-.18,2.25-.16Z"/>
  <path class="cls-2" d="M448.28,326.17c.38-.03.77-.05,1.16-.06,4.75-.06,9.54,1.06,13.59,3.58,5.64,3.51,9.7,9.31,11.6,15.68-.64-.84-2-2.16-2.73-2.89-1.16-1.18-2.36-2.33-3.59-3.43-2.46-2.21-5.07-4.25-7.88-5.98-2.47-1.52-5.1-2.79-7.85-3.71-2.93-.98-5.99-1.17-8.95-1.94,1.51-.67,3.04-1.09,4.65-1.24Z"/>
</svg>