<svg width="963" height="118" viewBox="0 0 963 118" fill="none" xmlns="http://www.w3.org/2000/svg">
<path d="M1.656 112V95.2H7.272C9.224 95.2 10.832 95.552 12.096 96.256C13.376 96.944 14.32 97.92 14.928 99.184C15.552 100.432 15.864 101.904 15.864 103.6C15.864 105.296 15.552 106.776 14.928 108.04C14.32 109.288 13.384 110.264 12.12 110.968C10.856 111.656 9.24 112 7.272 112H1.656ZM4.896 109.216H7.104C8.48 109.216 9.56 108.992 10.344 108.544C11.144 108.096 11.712 107.456 12.048 106.624C12.384 105.776 12.552 104.768 12.552 103.6C12.552 102.416 12.384 101.408 12.048 100.576C11.712 99.728 11.144 99.08 10.344 98.632C9.56 98.184 8.48 97.96 7.104 97.96H4.896V109.216ZM24.3608 112.288C23.1448 112.288 22.0648 112.032 21.1208 111.52C20.1928 110.992 19.4648 110.264 18.9368 109.336C18.4248 108.392 18.1688 107.304 18.1688 106.072C18.1688 104.808 18.4248 103.696 18.9368 102.736C19.4648 101.76 20.1928 101 21.1208 100.456C22.0488 99.896 23.1288 99.616 24.3608 99.616C25.5608 99.616 26.6088 99.88 27.5048 100.408C28.4008 100.936 29.0968 101.648 29.5928 102.544C30.0888 103.44 30.3368 104.456 30.3368 105.592C30.3368 105.752 30.3368 105.936 30.3368 106.144C30.3368 106.336 30.3208 106.536 30.2888 106.744H20.4728V104.776H27.0728C27.0248 103.992 26.7448 103.376 26.2328 102.928C25.7368 102.48 25.1128 102.256 24.3608 102.256C23.8168 102.256 23.3128 102.384 22.8488 102.64C22.3848 102.88 22.0168 103.256 21.7448 103.768C21.4888 104.28 21.3608 104.928 21.3608 105.712V106.408C21.3608 107.064 21.4808 107.64 21.7208 108.136C21.9768 108.616 22.3288 108.992 22.7768 109.264C23.2248 109.52 23.7448 109.648 24.3368 109.648C24.9288 109.648 25.4168 109.52 25.8008 109.264C26.2008 109.008 26.4968 108.68 26.6888 108.28H30.0008C29.7768 109.032 29.4008 109.712 28.8728 110.32C28.3448 110.928 27.6968 111.408 26.9288 111.76C26.1608 112.112 25.3048 112.288 24.3608 112.288ZM33.5423 112V102.616H31.8863V99.904H33.5423V98.824C33.5423 97.816 33.7103 97.016 34.0463 96.424C34.3823 95.832 34.8623 95.4 35.4863 95.128C36.1263 94.856 36.8703 94.72 37.7183 94.72H39.0383V97.48H38.1983C37.7023 97.48 37.3423 97.584 37.1183 97.792C36.8943 97.984 36.7823 98.32 36.7823 98.8V99.904H44.3903V112H41.1503V102.616H36.7823V112H33.5423ZM42.7823 98.272C42.2063 98.272 41.7263 98.096 41.3423 97.744C40.9743 97.392 40.7903 96.952 40.7903 96.424C40.7903 95.896 40.9743 95.464 41.3423 95.128C41.7263 94.792 42.2063 94.624 42.7823 94.624C43.3743 94.624 43.8543 94.792 44.2223 95.128C44.6063 95.464 44.7983 95.896 44.7983 96.424C44.7983 96.952 44.6063 97.392 44.2223 97.744C43.8543 98.096 43.3743 98.272 42.7823 98.272ZM47.6387 112V99.904H50.4947L50.7347 101.872C51.1027 101.2 51.6227 100.656 52.2947 100.24C52.9827 99.824 53.7987 99.616 54.7427 99.616C55.7507 99.616 56.5987 99.824 57.2867 100.24C57.9747 100.656 58.4947 101.264 58.8467 102.064C59.2147 102.864 59.3987 103.848 59.3987 105.016V112H56.1827V105.328C56.1827 104.368 55.9747 103.632 55.5587 103.12C55.1587 102.608 54.5347 102.352 53.6867 102.352C53.1427 102.352 52.6547 102.48 52.2227 102.736C51.8067 102.992 51.4787 103.36 51.2387 103.84C50.9987 104.304 50.8787 104.872 50.8787 105.544V112H47.6387ZM68.2592 112.288C67.0432 112.288 65.9632 112.032 65.0192 111.52C64.0912 110.992 63.3632 110.264 62.8352 109.336C62.3232 108.392 62.0672 107.304 62.0672 106.072C62.0672 104.808 62.3232 103.696 62.8352 102.736C63.3632 101.76 64.0912 101 65.0192 100.456C65.9472 99.896 67.0272 99.616 68.2592 99.616C69.4592 99.616 70.5072 99.88 71.4032 100.408C72.2992 100.936 72.9952 101.648 73.4912 102.544C73.9872 103.44 74.2352 104.456 74.2352 105.592C74.2352 105.752 74.2352 105.936 74.2352 106.144C74.2352 106.336 74.2192 106.536 74.1872 106.744H64.3712V104.776H70.9712C70.9232 103.992 70.6432 103.376 70.1312 102.928C69.6352 102.48 69.0112 102.256 68.2592 102.256C67.7152 102.256 67.2112 102.384 66.7472 102.64C66.2832 102.88 65.9152 103.256 65.6432 103.768C65.3872 104.28 65.2592 104.928 65.2592 105.712V106.408C65.2592 107.064 65.3792 107.64 65.6192 108.136C65.8752 108.616 66.2272 108.992 66.6752 109.264C67.1232 109.52 67.6432 109.648 68.2352 109.648C68.8272 109.648 69.3152 109.52 69.6992 109.264C70.0992 109.008 70.3952 108.68 70.5872 108.28H73.8992C73.6752 109.032 73.2992 109.712 72.7712 110.32C72.2432 110.928 71.5952 111.408 70.8272 111.76C70.0592 112.112 69.2032 112.288 68.2592 112.288Z" fill="black"/>
<path d="M208.656 112V95.2H214.92C216.28 95.2 217.4 95.432 218.28 95.896C219.16 96.36 219.816 96.984 220.248 97.768C220.68 98.536 220.896 99.392 220.896 100.336C220.896 101.232 220.688 102.072 220.272 102.856C219.856 103.624 219.2 104.248 218.304 104.728C217.424 105.192 216.288 105.424 214.896 105.424H211.896V112H208.656ZM217.368 112L213.912 104.608H217.416L221.064 112H217.368ZM211.896 103.072H214.728C215.704 103.072 216.424 102.832 216.888 102.352C217.352 101.872 217.584 101.24 217.584 100.456C217.584 99.672 217.352 99.056 216.888 98.608C216.44 98.144 215.72 97.912 214.728 97.912H211.896V103.072ZM228.806 112.288C227.59 112.288 226.51 112.032 225.566 111.52C224.638 110.992 223.91 110.264 223.382 109.336C222.87 108.392 222.614 107.304 222.614 106.072C222.614 104.808 222.87 103.696 223.382 102.736C223.91 101.76 224.638 101 225.566 100.456C226.494 99.896 227.574 99.616 228.806 99.616C230.006 99.616 231.054 99.88 231.95 100.408C232.846 100.936 233.542 101.648 234.038 102.544C234.534 103.44 234.782 104.456 234.782 105.592C234.782 105.752 234.782 105.936 234.782 106.144C234.782 106.336 234.766 106.536 234.734 106.744H224.918V104.776H231.518C231.47 103.992 231.19 103.376 230.678 102.928C230.182 102.48 229.558 102.256 228.806 102.256C228.262 102.256 227.758 102.384 227.294 102.64C226.83 102.88 226.462 103.256 226.19 103.768C225.934 104.28 225.806 104.928 225.806 105.712V106.408C225.806 107.064 225.926 107.64 226.166 108.136C226.422 108.616 226.774 108.992 227.222 109.264C227.67 109.52 228.19 109.648 228.782 109.648C229.374 109.648 229.862 109.52 230.246 109.264C230.646 109.008 230.942 108.68 231.134 108.28H234.446C234.222 109.032 233.846 109.712 233.318 110.32C232.79 110.928 232.142 111.408 231.374 111.76C230.606 112.112 229.75 112.288 228.806 112.288ZM242.38 112.288C241.276 112.288 240.316 112.112 239.5 111.76C238.684 111.408 238.044 110.92 237.58 110.296C237.116 109.672 236.852 108.968 236.788 108.184H240.004C240.084 108.488 240.22 108.768 240.412 109.024C240.604 109.264 240.86 109.456 241.18 109.6C241.5 109.744 241.884 109.816 242.332 109.816C242.764 109.816 243.116 109.76 243.388 109.648C243.66 109.52 243.86 109.352 243.988 109.144C244.132 108.936 244.204 108.72 244.204 108.496C244.204 108.16 244.108 107.904 243.916 107.728C243.724 107.536 243.444 107.384 243.076 107.272C242.708 107.16 242.26 107.048 241.732 106.936C241.156 106.824 240.588 106.688 240.028 106.528C239.484 106.352 238.996 106.136 238.564 105.88C238.132 105.624 237.788 105.296 237.532 104.896C237.276 104.496 237.148 104 237.148 103.408C237.148 102.688 237.34 102.048 237.724 101.488C238.108 100.912 238.668 100.456 239.404 100.12C240.14 99.784 241.028 99.616 242.068 99.616C243.524 99.616 244.676 99.944 245.524 100.6C246.372 101.256 246.876 102.16 247.036 103.312H243.988C243.892 102.944 243.676 102.656 243.34 102.448C243.02 102.224 242.588 102.112 242.044 102.112C241.468 102.112 241.028 102.216 240.724 102.424C240.42 102.632 240.268 102.904 240.268 103.24C240.268 103.464 240.364 103.664 240.556 103.84C240.764 104.016 241.052 104.168 241.42 104.296C241.788 104.408 242.236 104.52 242.764 104.632C243.692 104.824 244.508 105.048 245.212 105.304C245.916 105.544 246.468 105.896 246.868 106.36C247.268 106.808 247.468 107.464 247.468 108.328C247.468 109.096 247.26 109.784 246.844 110.392C246.428 110.984 245.836 111.448 245.068 111.784C244.316 112.12 243.42 112.288 242.38 112.288ZM256.017 112.288C254.801 112.288 253.721 112.032 252.777 111.52C251.849 110.992 251.121 110.264 250.593 109.336C250.081 108.392 249.825 107.304 249.825 106.072C249.825 104.808 250.081 103.696 250.593 102.736C251.121 101.76 251.849 101 252.777 100.456C253.705 99.896 254.785 99.616 256.017 99.616C257.217 99.616 258.265 99.88 259.161 100.408C260.057 100.936 260.753 101.648 261.249 102.544C261.745 103.44 261.993 104.456 261.993 105.592C261.993 105.752 261.993 105.936 261.993 106.144C261.993 106.336 261.977 106.536 261.945 106.744H252.129V104.776H258.729C258.681 103.992 258.401 103.376 257.889 102.928C257.393 102.48 256.769 102.256 256.017 102.256C255.473 102.256 254.969 102.384 254.505 102.64C254.041 102.88 253.673 103.256 253.401 103.768C253.145 104.28 253.017 104.928 253.017 105.712V106.408C253.017 107.064 253.137 107.64 253.377 108.136C253.633 108.616 253.985 108.992 254.433 109.264C254.881 109.52 255.401 109.648 255.993 109.648C256.585 109.648 257.073 109.52 257.457 109.264C257.857 109.008 258.153 108.68 258.345 108.28H261.657C261.433 109.032 261.057 109.712 260.529 110.32C260.001 110.928 259.353 111.408 258.585 111.76C257.817 112.112 256.961 112.288 256.017 112.288ZM268.727 112.288C267.719 112.288 266.887 112.128 266.23 111.808C265.575 111.472 265.087 111.032 264.767 110.488C264.463 109.928 264.311 109.312 264.311 108.64C264.311 107.904 264.495 107.256 264.863 106.696C265.247 106.136 265.815 105.696 266.567 105.376C267.335 105.056 268.295 104.896 269.447 104.896H272.447C272.447 104.304 272.367 103.816 272.207 103.432C272.047 103.032 271.799 102.736 271.463 102.544C271.127 102.352 270.679 102.256 270.118 102.256C269.511 102.256 268.991 102.392 268.559 102.664C268.143 102.92 267.887 103.32 267.791 103.864H264.646C264.727 103 265.007 102.256 265.487 101.632C265.983 100.992 266.631 100.496 267.431 100.144C268.247 99.792 269.151 99.616 270.143 99.616C271.279 99.616 272.263 99.808 273.095 100.192C273.927 100.576 274.567 101.128 275.015 101.848C275.463 102.568 275.687 103.456 275.687 104.512V112H272.951L272.591 110.152C272.415 110.472 272.207 110.76 271.967 111.016C271.727 111.272 271.447 111.496 271.127 111.688C270.807 111.88 270.447 112.024 270.047 112.12C269.647 112.232 269.207 112.288 268.727 112.288ZM269.495 109.792C269.911 109.792 270.279 109.72 270.599 109.576C270.935 109.416 271.223 109.208 271.463 108.952C271.703 108.68 271.887 108.376 272.015 108.04C272.159 107.688 272.255 107.312 272.303 106.912V106.888H269.831C269.335 106.888 268.927 106.952 268.607 107.08C268.303 107.192 268.079 107.36 267.935 107.584C267.791 107.808 267.719 108.064 267.719 108.352C267.719 108.672 267.791 108.936 267.935 109.144C268.079 109.352 268.287 109.512 268.559 109.624C268.831 109.736 269.143 109.792 269.495 109.792ZM278.709 112V99.904H281.589L281.901 102.136C282.189 101.608 282.549 101.16 282.981 100.792C283.429 100.424 283.933 100.136 284.493 99.928C285.069 99.72 285.701 99.616 286.389 99.616V103.048H285.285C284.805 103.048 284.357 103.104 283.941 103.216C283.541 103.328 283.189 103.512 282.885 103.768C282.581 104.008 282.349 104.344 282.189 104.776C282.029 105.208 281.949 105.752 281.949 106.408V112H278.709ZM294.198 112.288C292.982 112.288 291.902 112.016 290.958 111.472C290.014 110.928 289.278 110.184 288.75 109.24C288.222 108.296 287.958 107.216 287.958 106C287.958 104.752 288.222 103.656 288.75 102.712C289.278 101.752 290.014 101 290.958 100.456C291.902 99.896 292.982 99.616 294.198 99.616C295.75 99.616 297.054 100.024 298.11 100.84C299.166 101.656 299.838 102.776 300.126 104.2H296.694C296.55 103.64 296.246 103.2 295.782 102.88C295.334 102.56 294.798 102.4 294.174 102.4C293.614 102.4 293.11 102.544 292.662 102.832C292.23 103.104 291.886 103.512 291.63 104.056C291.39 104.584 291.27 105.216 291.27 105.952C291.27 106.512 291.342 107.016 291.486 107.464C291.63 107.896 291.83 108.272 292.086 108.592C292.342 108.896 292.646 109.128 292.998 109.288C293.366 109.448 293.758 109.528 294.174 109.528C294.59 109.528 294.966 109.456 295.302 109.312C295.654 109.168 295.95 108.968 296.19 108.712C296.43 108.44 296.598 108.112 296.694 107.728H300.126C299.838 109.12 299.158 110.232 298.086 111.064C297.03 111.88 295.734 112.288 294.198 112.288ZM302.92 112V94.72H306.16V101.704C306.56 101.064 307.088 100.56 307.744 100.192C308.416 99.808 309.192 99.616 310.072 99.616C311.08 99.616 311.928 99.832 312.616 100.264C313.304 100.68 313.824 101.288 314.176 102.088C314.528 102.888 314.704 103.88 314.704 105.064V112H311.488V105.352C311.488 104.392 311.288 103.656 310.888 103.144C310.488 102.616 309.856 102.352 308.992 102.352C308.464 102.352 307.984 102.48 307.552 102.736C307.12 102.992 306.776 103.368 306.52 103.864C306.28 104.344 306.16 104.92 306.16 105.592V112H302.92Z" fill="black"/>
<path d="M448.528 112L454.672 95.2H458.344L464.464 112H461.032L456.496 98.896L451.936 112H448.528ZM451.24 108.184L452.104 105.664H460.648L461.488 108.184H451.24ZM466.6 112V99.904H469.456L469.696 101.872C470.064 101.2 470.584 100.656 471.256 100.24C471.944 99.824 472.76 99.616 473.704 99.616C474.712 99.616 475.56 99.824 476.248 100.24C476.936 100.656 477.456 101.264 477.808 102.064C478.176 102.864 478.36 103.848 478.36 105.016V112H475.144V105.328C475.144 104.368 474.936 103.632 474.52 103.12C474.12 102.608 473.496 102.352 472.648 102.352C472.104 102.352 471.616 102.48 471.184 102.736C470.768 102.992 470.44 103.36 470.2 103.84C469.96 104.304 469.84 104.872 469.84 105.544V112H466.6ZM485.492 112.288C484.484 112.288 483.652 112.128 482.996 111.808C482.34 111.472 481.852 111.032 481.532 110.488C481.228 109.928 481.076 109.312 481.076 108.64C481.076 107.904 481.26 107.256 481.628 106.696C482.012 106.136 482.58 105.696 483.332 105.376C484.1 105.056 485.06 104.896 486.212 104.896H489.212C489.212 104.304 489.132 103.816 488.972 103.432C488.812 103.032 488.564 102.736 488.228 102.544C487.892 102.352 487.444 102.256 486.884 102.256C486.276 102.256 485.756 102.392 485.324 102.664C484.908 102.92 484.652 103.32 484.556 103.864H481.412C481.492 103 481.772 102.256 482.252 101.632C482.748 100.992 483.396 100.496 484.196 100.144C485.012 99.792 485.916 99.616 486.908 99.616C488.044 99.616 489.028 99.808 489.86 100.192C490.692 100.576 491.332 101.128 491.78 101.848C492.228 102.568 492.452 103.456 492.452 104.512V112H489.716L489.356 110.152C489.18 110.472 488.972 110.76 488.732 111.016C488.492 111.272 488.212 111.496 487.892 111.688C487.572 111.88 487.212 112.024 486.812 112.12C486.412 112.232 485.972 112.288 485.492 112.288ZM486.26 109.792C486.676 109.792 487.044 109.72 487.364 109.576C487.7 109.416 487.988 109.208 488.228 108.952C488.468 108.68 488.652 108.376 488.78 108.04C488.924 107.688 489.02 107.312 489.068 106.912V106.888H486.596C486.1 106.888 485.692 106.952 485.372 107.08C485.068 107.192 484.844 107.36 484.7 107.584C484.556 107.808 484.484 108.064 484.484 108.352C484.484 108.672 484.556 108.936 484.7 109.144C484.844 109.352 485.052 109.512 485.324 109.624C485.596 109.736 485.908 109.792 486.26 109.792ZM495.475 112V94.72H498.715V112H495.475ZM503.409 117.28L506.337 110.656H505.617L500.769 99.904H504.297L507.753 107.704L510.873 99.904H514.305L506.841 117.28H503.409ZM515.565 112V109.408L521.661 102.592H515.637V99.904H525.381V102.52L519.237 109.312H525.501V112H515.565ZM533.931 112.288C532.715 112.288 531.635 112.032 530.691 111.52C529.763 110.992 529.035 110.264 528.507 109.336C527.995 108.392 527.739 107.304 527.739 106.072C527.739 104.808 527.995 103.696 528.507 102.736C529.035 101.76 529.763 101 530.691 100.456C531.619 99.896 532.699 99.616 533.931 99.616C535.131 99.616 536.179 99.88 537.075 100.408C537.971 100.936 538.667 101.648 539.163 102.544C539.659 103.44 539.907 104.456 539.907 105.592C539.907 105.752 539.907 105.936 539.907 106.144C539.907 106.336 539.891 106.536 539.859 106.744H530.043V104.776H536.643C536.595 103.992 536.315 103.376 535.803 102.928C535.307 102.48 534.683 102.256 533.931 102.256C533.387 102.256 532.883 102.384 532.419 102.64C531.955 102.88 531.587 103.256 531.315 103.768C531.059 104.28 530.931 104.928 530.931 105.712V106.408C530.931 107.064 531.051 107.64 531.291 108.136C531.547 108.616 531.899 108.992 532.347 109.264C532.795 109.52 533.315 109.648 533.907 109.648C534.499 109.648 534.987 109.52 535.371 109.264C535.771 109.008 536.067 108.68 536.259 108.28H539.571C539.347 109.032 538.971 109.712 538.443 110.32C537.915 110.928 537.267 111.408 536.499 111.76C535.731 112.112 534.875 112.288 533.931 112.288Z" fill="black"/>
<path d="M673.656 112V95.2H679.272C681.224 95.2 682.832 95.552 684.096 96.256C685.376 96.944 686.32 97.92 686.928 99.184C687.552 100.432 687.864 101.904 687.864 103.6C687.864 105.296 687.552 106.776 686.928 108.04C686.32 109.288 685.384 110.264 684.12 110.968C682.856 111.656 681.24 112 679.272 112H673.656ZM676.896 109.216H679.104C680.48 109.216 681.56 108.992 682.344 108.544C683.144 108.096 683.712 107.456 684.048 106.624C684.384 105.776 684.552 104.768 684.552 103.6C684.552 102.416 684.384 101.408 684.048 100.576C683.712 99.728 683.144 99.08 682.344 98.632C681.56 98.184 680.48 97.96 679.104 97.96H676.896V109.216ZM696.361 112.288C695.145 112.288 694.065 112.032 693.121 111.52C692.193 110.992 691.465 110.264 690.937 109.336C690.425 108.392 690.169 107.304 690.169 106.072C690.169 104.808 690.425 103.696 690.937 102.736C691.465 101.76 692.193 101 693.121 100.456C694.049 99.896 695.129 99.616 696.361 99.616C697.561 99.616 698.609 99.88 699.505 100.408C700.401 100.936 701.097 101.648 701.593 102.544C702.089 103.44 702.337 104.456 702.337 105.592C702.337 105.752 702.337 105.936 702.337 106.144C702.337 106.336 702.321 106.536 702.289 106.744H692.473V104.776H699.073C699.025 103.992 698.745 103.376 698.233 102.928C697.737 102.48 697.113 102.256 696.361 102.256C695.817 102.256 695.313 102.384 694.849 102.64C694.385 102.88 694.017 103.256 693.745 103.768C693.489 104.28 693.361 104.928 693.361 105.712V106.408C693.361 107.064 693.481 107.64 693.721 108.136C693.977 108.616 694.329 108.992 694.777 109.264C695.225 109.52 695.745 109.648 696.337 109.648C696.929 109.648 697.417 109.52 697.801 109.264C698.201 109.008 698.497 108.68 698.689 108.28H702.001C701.777 109.032 701.401 109.712 700.873 110.32C700.345 110.928 699.697 111.408 698.929 111.76C698.161 112.112 697.305 112.288 696.361 112.288ZM709.934 112.288C708.83 112.288 707.87 112.112 707.054 111.76C706.238 111.408 705.598 110.92 705.134 110.296C704.67 109.672 704.406 108.968 704.342 108.184H707.558C707.638 108.488 707.774 108.768 707.966 109.024C708.158 109.264 708.414 109.456 708.734 109.6C709.054 109.744 709.438 109.816 709.886 109.816C710.318 109.816 710.67 109.76 710.942 109.648C711.214 109.52 711.414 109.352 711.542 109.144C711.686 108.936 711.758 108.72 711.758 108.496C711.758 108.16 711.662 107.904 711.47 107.728C711.278 107.536 710.998 107.384 710.63 107.272C710.262 107.16 709.814 107.048 709.286 106.936C708.71 106.824 708.142 106.688 707.582 106.528C707.038 106.352 706.55 106.136 706.118 105.88C705.686 105.624 705.342 105.296 705.086 104.896C704.83 104.496 704.702 104 704.702 103.408C704.702 102.688 704.894 102.048 705.278 101.488C705.662 100.912 706.222 100.456 706.958 100.12C707.694 99.784 708.582 99.616 709.622 99.616C711.078 99.616 712.23 99.944 713.078 100.6C713.926 101.256 714.43 102.16 714.59 103.312H711.542C711.446 102.944 711.23 102.656 710.894 102.448C710.574 102.224 710.142 102.112 709.598 102.112C709.022 102.112 708.582 102.216 708.278 102.424C707.974 102.632 707.822 102.904 707.822 103.24C707.822 103.464 707.918 103.664 708.11 103.84C708.318 104.016 708.606 104.168 708.974 104.296C709.342 104.408 709.79 104.52 710.318 104.632C711.246 104.824 712.062 105.048 712.766 105.304C713.47 105.544 714.022 105.896 714.422 106.36C714.822 106.808 715.022 107.464 715.022 108.328C715.022 109.096 714.814 109.784 714.398 110.392C713.982 110.984 713.39 111.448 712.622 111.784C711.87 112.12 710.974 112.288 709.934 112.288ZM717.836 112V99.904H721.076V112H717.836ZM719.468 98.248C718.892 98.248 718.412 98.08 718.028 97.744C717.66 97.392 717.476 96.952 717.476 96.424C717.476 95.896 717.66 95.464 718.028 95.128C718.412 94.776 718.892 94.6 719.468 94.6C720.06 94.6 720.54 94.776 720.908 95.128C721.292 95.464 721.484 95.896 721.484 96.424C721.484 96.952 721.292 97.392 720.908 97.744C720.54 98.08 720.06 98.248 719.468 98.248ZM729.558 117.568C728.406 117.568 727.398 117.424 726.534 117.136C725.67 116.864 724.998 116.44 724.518 115.864C724.054 115.304 723.822 114.608 723.822 113.776C723.822 113.216 723.966 112.688 724.254 112.192C724.542 111.696 724.958 111.248 725.502 110.848C726.062 110.432 726.758 110.08 727.59 109.792L728.814 111.376C728.078 111.616 727.542 111.912 727.206 112.264C726.886 112.632 726.726 113.024 726.726 113.44C726.726 113.808 726.846 114.12 727.086 114.376C727.342 114.632 727.678 114.816 728.094 114.928C728.526 115.056 729.006 115.12 729.534 115.12C730.046 115.12 730.486 115.056 730.854 114.928C731.238 114.8 731.534 114.608 731.742 114.352C731.966 114.112 732.078 113.824 732.078 113.488C732.078 113.056 731.926 112.704 731.622 112.432C731.318 112.16 730.71 111.992 729.798 111.928C728.982 111.864 728.254 111.776 727.614 111.664C726.99 111.536 726.438 111.392 725.958 111.232C725.478 111.056 725.07 110.864 724.734 110.656C724.414 110.448 724.15 110.24 723.942 110.032V109.48L726.51 106.72L728.838 107.464L725.814 110.44L726.726 108.856C726.902 108.952 727.07 109.048 727.23 109.144C727.406 109.224 727.622 109.304 727.878 109.384C728.134 109.448 728.47 109.512 728.886 109.576C729.302 109.64 729.83 109.696 730.47 109.744C731.526 109.84 732.39 110.04 733.062 110.344C733.75 110.648 734.254 111.056 734.574 111.568C734.894 112.064 735.054 112.68 735.054 113.416C735.054 114.136 734.854 114.808 734.454 115.432C734.07 116.072 733.47 116.584 732.654 116.968C731.838 117.368 730.806 117.568 729.558 117.568ZM729.558 108.424C728.55 108.424 727.678 108.232 726.942 107.848C726.222 107.448 725.662 106.92 725.262 106.264C724.878 105.592 724.686 104.848 724.686 104.032C724.686 103.216 724.878 102.48 725.262 101.824C725.662 101.152 726.222 100.616 726.942 100.216C727.678 99.816 728.55 99.616 729.558 99.616C730.582 99.616 731.454 99.816 732.174 100.216C732.91 100.616 733.47 101.152 733.854 101.824C734.238 102.48 734.43 103.216 734.43 104.032C734.43 104.848 734.238 105.592 733.854 106.264C733.47 106.92 732.91 107.448 732.174 107.848C731.454 108.232 730.582 108.424 729.558 108.424ZM729.558 105.952C730.182 105.952 730.686 105.792 731.07 105.472C731.454 105.152 731.646 104.68 731.646 104.056C731.646 103.432 731.454 102.96 731.07 102.64C730.686 102.304 730.182 102.136 729.558 102.136C728.95 102.136 728.446 102.304 728.046 102.64C727.662 102.96 727.47 103.432 727.47 104.056C727.47 104.68 727.662 105.152 728.046 105.472C728.446 105.792 728.95 105.952 729.558 105.952ZM731.574 102.208L731.046 99.904H736.014V101.824L731.574 102.208ZM738.646 112V99.904H741.503L741.743 101.872C742.111 101.2 742.631 100.656 743.303 100.24C743.991 99.824 744.807 99.616 745.751 99.616C746.759 99.616 747.607 99.824 748.295 100.24C748.983 100.656 749.503 101.264 749.855 102.064C750.223 102.864 750.407 103.848 750.407 105.016V112H747.191V105.328C747.191 104.368 746.983 103.632 746.567 103.12C746.167 102.608 745.543 102.352 744.695 102.352C744.151 102.352 743.663 102.48 743.23 102.736C742.815 102.992 742.487 103.36 742.247 103.84C742.007 104.304 741.887 104.872 741.887 105.544V112H738.646Z" fill="black"/>
<path d="M884.656 112V95.2H887.896V112H884.656ZM896.571 112C895.723 112 894.979 111.872 894.339 111.616C893.715 111.344 893.227 110.904 892.875 110.296C892.523 109.672 892.347 108.824 892.347 107.752V102.616H890.283V99.904H892.347L892.707 96.616H895.587V99.904H898.779V102.616H895.587V107.8C895.587 108.344 895.707 108.72 895.947 108.928C896.187 109.136 896.595 109.24 897.171 109.24H898.755V112H896.571ZM907.009 112.288C905.793 112.288 904.713 112.032 903.769 111.52C902.841 110.992 902.113 110.264 901.585 109.336C901.073 108.392 900.817 107.304 900.817 106.072C900.817 104.808 901.073 103.696 901.585 102.736C902.113 101.76 902.841 101 903.769 100.456C904.697 99.896 905.777 99.616 907.009 99.616C908.209 99.616 909.257 99.88 910.153 100.408C911.049 100.936 911.745 101.648 912.241 102.544C912.737 103.44 912.985 104.456 912.985 105.592C912.985 105.752 912.985 105.936 912.985 106.144C912.985 106.336 912.969 106.536 912.937 106.744H903.121V104.776H909.721C909.673 103.992 909.393 103.376 908.881 102.928C908.385 102.48 907.761 102.256 907.009 102.256C906.465 102.256 905.961 102.384 905.497 102.64C905.033 102.88 904.665 103.256 904.393 103.768C904.137 104.28 904.009 104.928 904.009 105.712V106.408C904.009 107.064 904.129 107.64 904.369 108.136C904.625 108.616 904.977 108.992 905.425 109.264C905.873 109.52 906.393 109.648 906.985 109.648C907.577 109.648 908.065 109.52 908.449 109.264C908.849 109.008 909.145 108.68 909.337 108.28H912.649C912.425 109.032 912.049 109.712 911.521 110.32C910.993 110.928 910.345 111.408 909.577 111.76C908.809 112.112 907.953 112.288 907.009 112.288ZM915.639 112V99.904H918.519L918.831 102.136C919.119 101.608 919.479 101.16 919.911 100.792C920.359 100.424 920.863 100.136 921.423 99.928C921.999 99.72 922.631 99.616 923.319 99.616V103.048H922.215C921.735 103.048 921.287 103.104 920.871 103.216C920.471 103.328 920.119 103.512 919.815 103.768C919.511 104.008 919.279 104.344 919.119 104.776C918.959 105.208 918.879 105.752 918.879 106.408V112H915.639ZM929.539 112.288C928.531 112.288 927.699 112.128 927.043 111.808C926.387 111.472 925.899 111.032 925.579 110.488C925.275 109.928 925.123 109.312 925.123 108.64C925.123 107.904 925.307 107.256 925.675 106.696C926.059 106.136 926.627 105.696 927.379 105.376C928.147 105.056 929.107 104.896 930.259 104.896H933.259C933.259 104.304 933.179 103.816 933.019 103.432C932.859 103.032 932.611 102.736 932.275 102.544C931.939 102.352 931.491 102.256 930.931 102.256C930.323 102.256 929.803 102.392 929.371 102.664C928.955 102.92 928.699 103.32 928.603 103.864H925.459C925.539 103 925.819 102.256 926.299 101.632C926.795 100.992 927.443 100.496 928.243 100.144C929.059 99.792 929.963 99.616 930.955 99.616C932.091 99.616 933.075 99.808 933.907 100.192C934.739 100.576 935.379 101.128 935.827 101.848C936.275 102.568 936.499 103.456 936.499 104.512V112H933.763L933.403 110.152C933.227 110.472 933.019 110.76 932.779 111.016C932.539 111.272 932.259 111.496 931.939 111.688C931.619 111.88 931.259 112.024 930.859 112.12C930.459 112.232 930.019 112.288 929.539 112.288ZM930.307 109.792C930.723 109.792 931.091 109.72 931.411 109.576C931.747 109.416 932.035 109.208 932.275 108.952C932.515 108.68 932.699 108.376 932.827 108.04C932.971 107.688 933.067 107.312 933.115 106.912V106.888H930.643C930.147 106.888 929.739 106.952 929.419 107.08C929.115 107.192 928.891 107.36 928.747 107.584C928.603 107.808 928.531 108.064 928.531 108.352C928.531 108.672 928.603 108.936 928.747 109.144C928.891 109.352 929.099 109.512 929.371 109.624C929.643 109.736 929.955 109.792 930.307 109.792ZM944.829 112C943.981 112 943.237 111.872 942.597 111.616C941.973 111.344 941.485 110.904 941.133 110.296C940.781 109.672 940.605 108.824 940.605 107.752V102.616H938.541V99.904H940.605L940.965 96.616H943.845V99.904H947.037V102.616H943.845V107.8C943.845 108.344 943.965 108.72 944.205 108.928C944.445 109.136 944.853 109.24 945.429 109.24H947.013V112H944.829ZM955.267 112.288C954.051 112.288 952.971 112.032 952.027 111.52C951.099 110.992 950.371 110.264 949.843 109.336C949.331 108.392 949.075 107.304 949.075 106.072C949.075 104.808 949.331 103.696 949.843 102.736C950.371 101.76 951.099 101 952.027 100.456C952.955 99.896 954.035 99.616 955.267 99.616C956.467 99.616 957.515 99.88 958.411 100.408C959.307 100.936 960.003 101.648 960.499 102.544C960.995 103.44 961.243 104.456 961.243 105.592C961.243 105.752 961.243 105.936 961.243 106.144C961.243 106.336 961.227 106.536 961.195 106.744H951.379V104.776H957.979C957.931 103.992 957.651 103.376 957.139 102.928C956.643 102.48 956.019 102.256 955.267 102.256C954.723 102.256 954.219 102.384 953.755 102.64C953.291 102.88 952.923 103.256 952.651 103.768C952.395 104.28 952.267 104.928 952.267 105.712V106.408C952.267 107.064 952.387 107.64 952.627 108.136C952.883 108.616 953.235 108.992 953.683 109.264C954.131 109.52 954.651 109.648 955.243 109.648C955.835 109.648 956.323 109.52 956.707 109.264C957.107 109.008 957.403 108.68 957.595 108.28H960.907C960.683 109.032 960.307 109.712 959.779 110.32C959.251 110.928 958.603 111.408 957.835 111.76C957.067 112.112 956.211 112.288 955.267 112.288Z" fill="black"/>
<circle cx="38" cy="27" r="26" stroke="black" stroke-width="2"/>
<circle cx="262" cy="27" r="26" stroke="black" stroke-width="2"/>
<circle cx="495" cy="27" r="26" stroke="black" stroke-width="2"/>
<circle cx="712" cy="27" r="26" stroke="black" stroke-width="2"/>
<circle cx="923" cy="27" r="26" stroke="black" stroke-width="2"/>
<line x1="64.9939" y1="27" x2="234.994" y2="25.9634" stroke="black" stroke-width="2"/>
<line x1="289" y1="27" x2="468" y2="27" stroke="black" stroke-width="2"/>
<line x1="522" y1="27" x2="685" y2="27" stroke="black" stroke-width="2"/>
<line x1="739.006" y1="26" x2="896.006" y2="27" stroke="black" stroke-width="2"/>
<path d="M36.72 36V22.92L33.744 23.712V21.12L38.112 19.2H40.08V36H36.72Z" fill="black"/>
<path d="M256.2 36V33.624C257.224 32.808 258.216 31.992 259.176 31.176C260.152 30.36 261.024 29.552 261.792 28.752C262.56 27.936 263.168 27.144 263.616 26.376C264.064 25.608 264.288 24.864 264.288 24.144C264.288 23.696 264.208 23.288 264.048 22.92C263.888 22.536 263.632 22.232 263.28 22.008C262.944 21.768 262.496 21.648 261.936 21.648C261.376 21.648 260.904 21.776 260.52 22.032C260.136 22.288 259.848 22.632 259.656 23.064C259.464 23.48 259.368 23.952 259.368 24.48H256.224C256.272 23.248 256.552 22.216 257.064 21.384C257.576 20.552 258.264 19.936 259.128 19.536C259.992 19.12 260.96 18.912 262.032 18.912C263.216 18.912 264.216 19.136 265.032 19.584C265.848 20.016 266.464 20.608 266.88 21.36C267.312 22.112 267.528 22.976 267.528 23.952C267.528 24.688 267.392 25.408 267.12 26.112C266.864 26.816 266.496 27.504 266.016 28.176C265.552 28.832 265.024 29.464 264.432 30.072C263.84 30.68 263.224 31.264 262.584 31.824C261.944 32.368 261.32 32.88 260.712 33.36H267.936V36H256.2Z" fill="black"/>
<path d="M495.2 35.288C494.112 35.288 493.112 35.088 492.2 34.688C491.288 34.288 490.56 33.68 490.016 32.864C489.472 32.048 489.184 31.016 489.152 29.768H492.32C492.336 30.296 492.456 30.776 492.68 31.208C492.904 31.624 493.232 31.96 493.664 32.216C494.096 32.456 494.608 32.576 495.2 32.576C495.76 32.576 496.24 32.464 496.64 32.24C497.04 32.016 497.344 31.72 497.552 31.352C497.76 30.984 497.864 30.56 497.864 30.08C497.864 29.52 497.72 29.056 497.432 28.688C497.16 28.304 496.776 28.016 496.28 27.824C495.8 27.632 495.248 27.536 494.624 27.536H493.376V24.872H494.624C495.408 24.872 496.064 24.688 496.592 24.32C497.136 23.952 497.408 23.4 497.408 22.664C497.408 22.056 497.208 21.568 496.808 21.2C496.424 20.832 495.88 20.648 495.176 20.648C494.408 20.648 493.808 20.872 493.376 21.32C492.944 21.768 492.704 22.32 492.656 22.976H489.488C489.536 21.92 489.8 21.016 490.28 20.264C490.776 19.496 491.44 18.912 492.272 18.512C493.104 18.112 494.072 17.912 495.176 17.912C496.344 17.912 497.328 18.12 498.128 18.536C498.944 18.936 499.56 19.48 499.976 20.168C500.392 20.856 500.6 21.6 500.6 22.4C500.6 23.056 500.472 23.64 500.216 24.152C499.976 24.664 499.648 25.088 499.232 25.424C498.816 25.76 498.36 26 497.864 26.144C498.488 26.272 499.032 26.52 499.496 26.888C499.976 27.24 500.344 27.696 500.6 28.256C500.872 28.816 501.008 29.464 501.008 30.2C501.008 31.112 500.784 31.96 500.336 32.744C499.904 33.512 499.248 34.128 498.368 34.592C497.504 35.056 496.448 35.288 495.2 35.288Z" fill="black"/>
<path d="M713.336 36V32.952H705.08V30.384L712.904 19.2H716.576V30.144H718.76V32.952H716.576V36H713.336ZM708.536 30.144H713.552V22.776L708.536 30.144Z" fill="black"/>
<path d="M922.656 36.288C921.44 36.288 920.384 36.072 919.488 35.64C918.608 35.208 917.92 34.616 917.424 33.864C916.928 33.112 916.64 32.256 916.56 31.296H919.728C919.84 31.92 920.16 32.448 920.688 32.88C921.216 33.312 921.88 33.528 922.68 33.528C923.256 33.528 923.76 33.384 924.192 33.096C924.624 32.808 924.96 32.424 925.2 31.944C925.44 31.448 925.56 30.888 925.56 30.264C925.56 29.624 925.432 29.072 925.176 28.608C924.936 28.144 924.6 27.784 924.168 27.528C923.752 27.272 923.272 27.144 922.728 27.144C922.04 27.144 921.448 27.312 920.952 27.648C920.472 27.968 920.128 28.36 919.92 28.824H916.776L918.168 19.2H927.6V22.032H920.568L919.872 25.776C920.224 25.408 920.696 25.112 921.288 24.888C921.88 24.648 922.544 24.528 923.28 24.528C924.192 24.528 924.984 24.688 925.656 25.008C926.328 25.312 926.888 25.736 927.336 26.28C927.784 26.808 928.12 27.416 928.344 28.104C928.568 28.776 928.68 29.488 928.68 30.24C928.68 31.12 928.528 31.928 928.224 32.664C927.936 33.4 927.52 34.04 926.976 34.584C926.448 35.128 925.816 35.552 925.08 35.856C924.36 36.144 923.552 36.288 922.656 36.288Z" fill="black"/>
</svg>
